<svg width="84" height="25" viewBox="0 0 84 25" fill="none" xmlns="http://www.w3.org/2000/svg">
<mask id="path-1-outside-1_312_36" maskUnits="userSpaceOnUse" x="-2" y="-2" width="88" height="29" fill="black">
<rect fill="white" x="-2" y="-2" width="88" height="29"/>
<path d="M0.28125 5.29545V0.727272H19.9517V5.29545H12.8949V24H7.34943V5.29545H0.28125ZM23.9602 24L19.4148 6.54545H24.9943L27.3466 17.7273H27.4943L30.017 6.54545H35.4602L38.0511 17.6477H38.1989L40.483 6.54545H46.0625L41.5057 24H35.5625L32.8352 13.8295H32.642L29.9148 24H23.9602ZM56.0767 24.3295C54.2509 24.3295 52.6752 23.9697 51.3494 23.25C50.0313 22.5227 49.0161 21.4886 48.304 20.1477C47.5994 18.7992 47.2472 17.197 47.2472 15.3409C47.2472 13.5379 47.6032 11.9621 48.3153 10.6136C49.0275 9.25758 50.0312 8.20454 51.3267 7.45454C52.6222 6.69697 54.1487 6.31818 55.9062 6.31818C57.1487 6.31818 58.285 6.51136 59.3153 6.89773C60.3456 7.28409 61.2358 7.85606 61.9858 8.61364C62.7358 9.37121 63.3191 10.3068 63.7358 11.4205C64.1525 12.5265 64.3608 13.7955 64.3608 15.2273V16.6136H49.1903V13.3864H59.1903C59.1828 12.7955 59.0426 12.2689 58.7699 11.8068C58.4972 11.3447 58.1222 10.9848 57.6449 10.7273C57.1752 10.4621 56.6335 10.3295 56.0199 10.3295C55.3987 10.3295 54.8419 10.4697 54.3494 10.75C53.857 11.0227 53.4669 11.3977 53.179 11.875C52.8911 12.3447 52.7396 12.8788 52.7244 13.4773V16.7614C52.7244 17.4735 52.8646 18.0985 53.1449 18.6364C53.4252 19.1667 53.8229 19.5795 54.3381 19.875C54.8532 20.1705 55.4669 20.3182 56.179 20.3182C56.6714 20.3182 57.1184 20.25 57.5199 20.1136C57.9214 19.9773 58.2661 19.7765 58.554 19.5114C58.8419 19.2462 59.0578 18.9205 59.2017 18.5341L64.304 18.6818C64.0919 19.8258 63.6259 20.822 62.9062 21.6705C62.1941 22.5114 61.2585 23.1667 60.0994 23.6364C58.9403 24.0985 57.5994 24.3295 56.0767 24.3295ZM75.358 24.3295C73.5322 24.3295 71.9564 23.9697 70.6307 23.25C69.3125 22.5227 68.2973 21.4886 67.5852 20.1477C66.8807 18.7992 66.5284 17.197 66.5284 15.3409C66.5284 13.5379 66.8845 11.9621 67.5966 10.6136C68.3087 9.25758 69.3125 8.20454 70.608 7.45454C71.9034 6.69697 73.4299 6.31818 75.1875 6.31818C76.4299 6.31818 77.5663 6.51136 78.5966 6.89773C79.6269 7.28409 80.517 7.85606 81.267 8.61364C82.017 9.37121 82.6004 10.3068 83.017 11.4205C83.4337 12.5265 83.642 13.7955 83.642 15.2273V16.6136H68.4716V13.3864H78.4716C78.464 12.7955 78.3239 12.2689 78.0511 11.8068C77.7784 11.3447 77.4034 10.9848 76.9261 10.7273C76.4564 10.4621 75.9148 10.3295 75.3011 10.3295C74.6799 10.3295 74.1231 10.4697 73.6307 10.75C73.1383 11.0227 72.7481 11.3977 72.4602 11.875C72.1723 12.3447 72.0208 12.8788 72.0057 13.4773V16.7614C72.0057 17.4735 72.1458 18.0985 72.4261 18.6364C72.7064 19.1667 73.1042 19.5795 73.6193 19.875C74.1345 20.1705 74.7481 20.3182 75.4602 20.3182C75.9527 20.3182 76.3996 20.25 76.8011 20.1136C77.2027 19.9773 77.5473 19.7765 77.8352 19.5114C78.1231 19.2462 78.339 18.9205 78.483 18.5341L83.5852 18.6818C83.3731 19.8258 82.9072 20.822 82.1875 21.6705C81.4754 22.5114 80.5398 23.1667 79.3807 23.6364C78.2216 24.0985 76.8807 24.3295 75.358 24.3295Z"/>
</mask>
<path d="M0.28125 5.29545V0.727272H19.9517V5.29545H12.8949V24H7.34943V5.29545H0.28125ZM23.9602 24L19.4148 6.54545H24.9943L27.3466 17.7273H27.4943L30.017 6.54545H35.4602L38.0511 17.6477H38.1989L40.483 6.54545H46.0625L41.5057 24H35.5625L32.8352 13.8295H32.642L29.9148 24H23.9602ZM56.0767 24.3295C54.2509 24.3295 52.6752 23.9697 51.3494 23.25C50.0313 22.5227 49.0161 21.4886 48.304 20.1477C47.5994 18.7992 47.2472 17.197 47.2472 15.3409C47.2472 13.5379 47.6032 11.9621 48.3153 10.6136C49.0275 9.25758 50.0312 8.20454 51.3267 7.45454C52.6222 6.69697 54.1487 6.31818 55.9062 6.31818C57.1487 6.31818 58.285 6.51136 59.3153 6.89773C60.3456 7.28409 61.2358 7.85606 61.9858 8.61364C62.7358 9.37121 63.3191 10.3068 63.7358 11.4205C64.1525 12.5265 64.3608 13.7955 64.3608 15.2273V16.6136H49.1903V13.3864H59.1903C59.1828 12.7955 59.0426 12.2689 58.7699 11.8068C58.4972 11.3447 58.1222 10.9848 57.6449 10.7273C57.1752 10.4621 56.6335 10.3295 56.0199 10.3295C55.3987 10.3295 54.8419 10.4697 54.3494 10.75C53.857 11.0227 53.4669 11.3977 53.179 11.875C52.8911 12.3447 52.7396 12.8788 52.7244 13.4773V16.7614C52.7244 17.4735 52.8646 18.0985 53.1449 18.6364C53.4252 19.1667 53.8229 19.5795 54.3381 19.875C54.8532 20.1705 55.4669 20.3182 56.179 20.3182C56.6714 20.3182 57.1184 20.25 57.5199 20.1136C57.9214 19.9773 58.2661 19.7765 58.554 19.5114C58.8419 19.2462 59.0578 18.9205 59.2017 18.5341L64.304 18.6818C64.0919 19.8258 63.6259 20.822 62.9062 21.6705C62.1941 22.5114 61.2585 23.1667 60.0994 23.6364C58.9403 24.0985 57.5994 24.3295 56.0767 24.3295ZM75.358 24.3295C73.5322 24.3295 71.9564 23.9697 70.6307 23.25C69.3125 22.5227 68.2973 21.4886 67.5852 20.1477C66.8807 18.7992 66.5284 17.197 66.5284 15.3409C66.5284 13.5379 66.8845 11.9621 67.5966 10.6136C68.3087 9.25758 69.3125 8.20454 70.608 7.45454C71.9034 6.69697 73.4299 6.31818 75.1875 6.31818C76.4299 6.31818 77.5663 6.51136 78.5966 6.89773C79.6269 7.28409 80.517 7.85606 81.267 8.61364C82.017 9.37121 82.6004 10.3068 83.017 11.4205C83.4337 12.5265 83.642 13.7955 83.642 15.2273V16.6136H68.4716V13.3864H78.4716C78.464 12.7955 78.3239 12.2689 78.0511 11.8068C77.7784 11.3447 77.4034 10.9848 76.9261 10.7273C76.4564 10.4621 75.9148 10.3295 75.3011 10.3295C74.6799 10.3295 74.1231 10.4697 73.6307 10.75C73.1383 11.0227 72.7481 11.3977 72.4602 11.875C72.1723 12.3447 72.0208 12.8788 72.0057 13.4773V16.7614C72.0057 17.4735 72.1458 18.0985 72.4261 18.6364C72.7064 19.1667 73.1042 19.5795 73.6193 19.875C74.1345 20.1705 74.7481 20.3182 75.4602 20.3182C75.9527 20.3182 76.3996 20.25 76.8011 20.1136C77.2027 19.9773 77.5473 19.7765 77.8352 19.5114C78.1231 19.2462 78.339 18.9205 78.483 18.5341L83.5852 18.6818C83.3731 19.8258 82.9072 20.822 82.1875 21.6705C81.4754 22.5114 80.5398 23.1667 79.3807 23.6364C78.2216 24.0985 76.8807 24.3295 75.358 24.3295Z" fill="white"/>
<path d="M0.28125 5.29545H-1.71875V7.29545H0.28125V5.29545ZM0.28125 0.727272V-1.27273H-1.71875V0.727272H0.28125ZM19.9517 0.727272H21.9517V-1.27273H19.9517V0.727272ZM19.9517 5.29545V7.29545H21.9517V5.29545H19.9517ZM12.8949 5.29545V3.29545H10.8949V5.29545H12.8949ZM12.8949 24V26H14.8949V24H12.8949ZM7.34943 24H5.34943V26H7.34943V24ZM7.34943 5.29545H9.34943V3.29545H7.34943V5.29545ZM2.28125 5.29545V0.727272H-1.71875V5.29545H2.28125ZM0.28125 2.72727H19.9517V-1.27273H0.28125V2.72727ZM17.9517 0.727272V5.29545H21.9517V0.727272H17.9517ZM19.9517 3.29545H12.8949V7.29545H19.9517V3.29545ZM10.8949 5.29545V24H14.8949V5.29545H10.8949ZM12.8949 22H7.34943V26H12.8949V22ZM9.34943 24V5.29545H5.34943V24H9.34943ZM7.34943 3.29545H0.28125V7.29545H7.34943V3.29545ZM23.9602 24L22.0248 24.504L22.4144 26H23.9602V24ZM19.4148 6.54545V4.54545H16.8272L17.4793 7.04948L19.4148 6.54545ZM24.9943 6.54545L26.9515 6.13373L26.6174 4.54545H24.9943V6.54545ZM27.3466 17.7273L25.3894 18.139L25.7235 19.7273H27.3466V17.7273ZM27.4943 17.7273V19.7273H29.0934L29.4453 18.1674L27.4943 17.7273ZM30.017 6.54545V4.54545H28.418L28.0661 6.1053L30.017 6.54545ZM35.4602 6.54545L37.4079 6.09093L37.0472 4.54545H35.4602V6.54545ZM38.0511 17.6477L36.1035 18.1022L36.4641 19.6477H38.0511V17.6477ZM38.1989 17.6477V19.6477H39.8293L40.1578 18.0508L38.1989 17.6477ZM40.483 6.54545V4.54545H38.8525L38.524 6.14243L40.483 6.54545ZM46.0625 6.54545L47.9976 7.05066L48.6517 4.54545H46.0625V6.54545ZM41.5057 24V26H43.0506L43.4408 24.5052L41.5057 24ZM35.5625 24L33.6307 24.518L34.0282 26H35.5625V24ZM32.8352 13.8295L34.767 13.3115L34.3696 11.8295H32.8352V13.8295ZM32.642 13.8295V11.8295H31.1077L30.7103 13.3115L32.642 13.8295ZM29.9148 24V26H31.4491L31.8465 24.518L29.9148 24ZM25.8957 23.496L21.3502 6.04143L17.4793 7.04948L22.0248 24.504L25.8957 23.496ZM19.4148 8.54545H24.9943V4.54545H19.4148V8.54545ZM23.0372 6.95717L25.3894 18.139L29.3038 17.3156L26.9515 6.13373L23.0372 6.95717ZM27.3466 19.7273H27.4943V15.7273H27.3466V19.7273ZM29.4453 18.1674L31.968 6.98561L28.0661 6.1053L25.5434 17.2871L29.4453 18.1674ZM30.017 8.54545H35.4602V4.54545H30.017V8.54545ZM33.5126 6.99998L36.1035 18.1022L39.9988 17.1932L37.4079 6.09093L33.5126 6.99998ZM38.0511 19.6477H38.1989V15.6477H38.0511V19.6477ZM40.1578 18.0508L42.4419 6.94848L38.524 6.14243L36.2399 17.2447L40.1578 18.0508ZM40.483 8.54545H46.0625V4.54545H40.483V8.54545ZM44.1274 6.04025L39.5705 23.4948L43.4408 24.5052L47.9976 7.05066L44.1274 6.04025ZM41.5057 22H35.5625V26H41.5057V22ZM37.4943 23.482L34.767 13.3115L30.9035 14.3476L33.6307 24.518L37.4943 23.482ZM32.8352 11.8295H32.642V15.8295H32.8352V11.8295ZM30.7103 13.3115L27.983 23.482L31.8465 24.518L34.5738 14.3476L30.7103 13.3115ZM29.9148 22H23.9602V26H29.9148V22ZM51.3494 23.25L50.3833 25.0012L50.3952 25.0077L51.3494 23.25ZM48.304 20.1477L46.5313 21.0739L46.5376 21.0858L48.304 20.1477ZM48.3153 10.6136L50.0839 11.5476L50.086 11.5435L48.3153 10.6136ZM51.3267 7.45454L52.3288 9.18541L52.3363 9.181L51.3267 7.45454ZM59.3153 6.89773L60.0176 5.02507L60.0176 5.02507L59.3153 6.89773ZM63.7358 11.4205L61.8626 12.1213L61.8642 12.1255L63.7358 11.4205ZM64.3608 16.6136V18.6136H66.3608V16.6136H64.3608ZM49.1903 16.6136H47.1903V18.6136H49.1903V16.6136ZM49.1903 13.3864V11.3864H47.1903V13.3864H49.1903ZM59.1903 13.3864V15.3864H61.2161L61.1902 13.3607L59.1903 13.3864ZM57.6449 10.7273L56.6617 12.4689L56.6783 12.4783L56.695 12.4873L57.6449 10.7273ZM54.3494 10.75L55.3184 12.4996L55.3287 12.4939L55.3388 12.4881L54.3494 10.75ZM53.179 11.875L54.8842 12.9201L54.8879 12.9141L54.8916 12.908L53.179 11.875ZM52.7244 13.4773L50.7251 13.4267L50.7244 13.452V13.4773H52.7244ZM53.1449 18.6364L51.3712 19.5607L51.3767 19.571L53.1449 18.6364ZM54.3381 19.875L53.343 21.6099L53.343 21.6099L54.3381 19.875ZM57.5199 20.1136L58.1631 22.0074L58.1631 22.0074L57.5199 20.1136ZM58.554 19.5114L59.9089 20.9825L59.9089 20.9825L58.554 19.5114ZM59.2017 18.5341L59.2596 16.5349L57.8277 16.4935L57.3275 17.8359L59.2017 18.5341ZM64.304 18.6818L66.2705 19.0465L66.6962 16.7502L64.3619 16.6827L64.304 18.6818ZM62.9062 21.6705L61.381 20.3767L61.38 20.378L62.9062 21.6705ZM60.0994 23.6364L60.8401 25.4942L60.8506 25.49L60.0994 23.6364ZM56.0767 22.3295C54.5146 22.3295 53.2808 22.0228 52.3036 21.4923L50.3952 25.0077C52.0695 25.9166 53.9873 26.3295 56.0767 26.3295V22.3295ZM52.3156 21.4988C51.3405 20.9609 50.602 20.2107 50.0703 19.2097L46.5376 21.0858C47.4302 22.7666 48.722 24.0846 50.3833 25.0012L52.3156 21.4988ZM50.0766 19.2216C49.5508 18.2152 49.2472 16.9445 49.2472 15.3409H45.2472C45.2472 17.4494 45.6481 19.3833 46.5313 21.0739L50.0766 19.2216ZM49.2472 15.3409C49.2472 13.8041 49.5492 12.56 50.0839 11.5476L46.5468 9.67969C45.6572 11.3642 45.2472 13.2716 45.2472 15.3409H49.2472ZM50.086 11.5435C50.627 10.5134 51.3679 9.74169 52.3288 9.1854L50.3246 5.72369C48.6946 6.6674 47.428 8.00173 46.5446 9.68377L50.086 11.5435ZM52.3363 9.181C53.2765 8.63117 54.4422 8.31818 55.9062 8.31818V4.31818C53.8551 4.31818 51.9678 4.76277 50.3171 5.72809L52.3363 9.181ZM55.9062 8.31818C56.9396 8.31818 57.8344 8.47838 58.6131 8.77038L60.0176 5.02507C58.7357 4.54435 57.3578 4.31818 55.9062 4.31818V8.31818ZM58.6131 8.77038C59.3819 9.05867 60.0244 9.47514 60.5645 10.0207L63.4071 7.20655C62.4472 6.23698 61.3094 5.50951 60.0176 5.02507L58.6131 8.77038ZM60.5645 10.0207C61.0938 10.5554 61.5335 11.2417 61.8626 12.1213L65.609 10.7196C65.1048 9.37195 64.3778 8.18701 63.4071 7.20655L60.5645 10.0207ZM61.8642 12.1255C62.1801 12.9642 62.3608 13.9868 62.3608 15.2273H66.3608C66.3608 13.6041 66.1248 12.0889 65.6074 10.7154L61.8642 12.1255ZM62.3608 15.2273V16.6136H66.3608V15.2273H62.3608ZM64.3608 14.6136H49.1903V18.6136H64.3608V14.6136ZM51.1903 16.6136V13.3864H47.1903V16.6136H51.1903ZM49.1903 15.3864H59.1903V11.3864H49.1903V15.3864ZM61.1902 13.3607C61.1786 12.4572 60.9599 11.5826 60.4923 10.7903L57.0475 12.8233C57.1253 12.9552 57.1869 13.1337 57.1905 13.412L61.1902 13.3607ZM60.4923 10.7903C60.0325 10.0111 59.3888 9.39576 58.5948 8.96723L56.695 12.4873C56.8555 12.5739 56.9619 12.6783 57.0475 12.8233L60.4923 10.7903ZM58.6281 8.98562C57.819 8.52891 56.9299 8.32955 56.0199 8.32955V12.3295C56.3372 12.3295 56.5313 12.3953 56.6617 12.4689L58.6281 8.98562ZM56.0199 8.32955C55.0861 8.32955 54.1825 8.54372 53.36 9.01187L55.3388 12.4881C55.5013 12.3957 55.7113 12.3295 56.0199 12.3295V8.32955ZM53.3804 9.00042C52.5849 9.44103 51.937 10.0618 51.4664 10.842L54.8916 12.908C54.9967 12.7337 55.1291 12.6044 55.3184 12.4996L53.3804 9.00042ZM51.4738 10.8299C50.9863 11.6252 50.7483 12.508 50.7251 13.4267L54.7238 13.5279C54.7308 13.2496 54.7959 13.0642 54.8842 12.9201L51.4738 10.8299ZM50.7244 13.4773V16.7614H54.7244V13.4773H50.7244ZM50.7244 16.7614C50.7244 17.7393 50.9184 18.6915 51.3713 19.5606L54.9185 17.7121C54.8108 17.5054 54.7244 17.2077 54.7244 16.7614H50.7244ZM51.3767 19.571C51.8319 20.4323 52.4962 21.1242 53.343 21.6099L55.3331 18.1401C55.1497 18.0349 55.0184 17.9011 54.9131 17.7017L51.3767 19.571ZM53.343 21.6099C54.2162 22.1107 55.1873 22.3182 56.179 22.3182V18.3182C55.7464 18.3182 55.4903 18.2302 55.3331 18.1401L53.343 21.6099ZM56.179 22.3182C56.8556 22.3182 57.524 22.2244 58.1631 22.0074L56.8767 18.2199C56.7127 18.2756 56.4872 18.3182 56.179 18.3182V22.3182ZM58.1631 22.0074C58.8064 21.7889 59.3992 21.4519 59.9089 20.9825L57.199 18.0403C57.133 18.1011 57.0364 18.1656 56.8767 18.2199L58.1631 22.0074ZM59.9089 20.9825C60.4407 20.4927 60.8281 19.8973 61.0759 19.2323L57.3275 17.8359C57.2874 17.9436 57.243 17.9997 57.199 18.0403L59.9089 20.9825ZM59.1438 20.5333L64.2461 20.681L64.3619 16.6827L59.2596 16.5349L59.1438 20.5333ZM62.3375 18.3172C62.1859 19.1346 61.8647 19.8065 61.381 20.3767L64.4315 22.9642C65.3872 21.8374 65.9978 20.517 66.2705 19.0465L62.3375 18.3172ZM61.38 20.378C60.9038 20.9403 60.2483 21.4181 59.3483 21.7828L60.8506 25.49C62.2687 24.9153 63.4844 24.0825 64.4325 22.963L61.38 20.378ZM59.3587 21.7786C58.481 22.1285 57.4 22.3295 56.0767 22.3295V26.3295C57.7988 26.3295 59.3997 26.0684 60.8401 25.4942L59.3587 21.7786ZM70.6307 23.25L69.6645 25.0012L69.6765 25.0077L70.6307 23.25ZM67.5852 20.1477L65.8126 21.0739L65.8189 21.0858L67.5852 20.1477ZM67.5966 10.6136L69.3651 11.5476L69.3673 11.5435L67.5966 10.6136ZM70.608 7.45454L71.61 9.18541L71.6176 9.181L70.608 7.45454ZM78.5966 6.89773L79.2988 5.02507L79.2988 5.02507L78.5966 6.89773ZM83.017 11.4205L81.1439 12.1213L81.1454 12.1255L83.017 11.4205ZM83.642 16.6136V18.6136H85.642V16.6136H83.642ZM68.4716 16.6136H66.4716V18.6136H68.4716V16.6136ZM68.4716 13.3864V11.3864H66.4716V13.3864H68.4716ZM78.4716 13.3864V15.3864H80.4974L80.4714 13.3607L78.4716 13.3864ZM76.9261 10.7273L75.9429 12.4689L75.9595 12.4783L75.9763 12.4873L76.9261 10.7273ZM73.6307 10.75L74.5997 12.4996L74.6099 12.4939L74.6201 12.4881L73.6307 10.75ZM72.4602 11.875L74.1654 12.9201L74.1691 12.9141L74.1728 12.908L72.4602 11.875ZM72.0057 13.4773L70.0063 13.4267L70.0057 13.452V13.4773H72.0057ZM72.4261 18.6364L70.6525 19.5607L70.6579 19.571L72.4261 18.6364ZM73.6193 19.875L72.6243 21.6099L72.6243 21.6099L73.6193 19.875ZM76.8011 20.1136L77.4443 22.0074L77.4443 22.0074L76.8011 20.1136ZM77.8352 19.5114L79.1902 20.9825L79.1902 20.9825L77.8352 19.5114ZM78.483 18.5341L78.5408 16.5349L77.1089 16.4935L76.6088 17.8359L78.483 18.5341ZM83.5852 18.6818L85.5517 19.0465L85.9775 16.7502L83.6431 16.6827L83.5852 18.6818ZM82.1875 21.6705L80.6623 20.3767L80.6612 20.378L82.1875 21.6705ZM79.3807 23.6364L80.1214 25.4942L80.1318 25.49L79.3807 23.6364ZM75.358 22.3295C73.7959 22.3295 72.5621 22.0228 71.5849 21.4923L69.6765 25.0077C71.3508 25.9166 73.2685 26.3295 75.358 26.3295V22.3295ZM71.5968 21.4988C70.6217 20.9609 69.8832 20.2107 69.3516 19.2097L65.8189 21.0858C66.7115 22.7666 68.0033 24.0846 69.6645 25.0012L71.5968 21.4988ZM69.3579 19.2216C68.8321 18.2152 68.5284 16.9445 68.5284 15.3409H64.5284C64.5284 17.4494 64.9293 19.3833 65.8126 21.0739L69.3579 19.2216ZM68.5284 15.3409C68.5284 13.8041 68.8305 12.56 69.3651 11.5476L65.828 9.67969C64.9385 11.3642 64.5284 13.2716 64.5284 15.3409H68.5284ZM69.3673 11.5435C69.9082 10.5134 70.6492 9.74169 71.61 9.1854L69.6059 5.72369C67.9758 6.6674 66.7092 8.00173 65.8259 9.68377L69.3673 11.5435ZM71.6176 9.181C72.5578 8.63117 73.7234 8.31818 75.1875 8.31818V4.31818C73.1364 4.31818 71.249 4.76277 69.5983 5.72809L71.6176 9.181ZM75.1875 8.31818C76.2208 8.31818 77.1157 8.47838 77.8943 8.77038L79.2988 5.02507C78.0169 4.54435 76.639 4.31818 75.1875 4.31818V8.31818ZM77.8943 8.77038C78.6631 9.05867 79.3056 9.47514 79.8457 10.0207L82.6883 7.20655C81.7285 6.23698 80.5907 5.50951 79.2988 5.02507L77.8943 8.77038ZM79.8457 10.0207C80.3751 10.5554 80.8148 11.2417 81.1439 12.1213L84.8902 10.7196C84.386 9.37195 83.659 8.18701 82.6883 7.20655L79.8457 10.0207ZM81.1454 12.1255C81.4614 12.9642 81.642 13.9868 81.642 15.2273H85.642C85.642 13.6041 85.4061 12.0889 84.8886 10.7154L81.1454 12.1255ZM81.642 15.2273V16.6136H85.642V15.2273H81.642ZM83.642 14.6136H68.4716V18.6136H83.642V14.6136ZM70.4716 16.6136V13.3864H66.4716V16.6136H70.4716ZM68.4716 15.3864H78.4716V11.3864H68.4716V15.3864ZM80.4714 13.3607C80.4598 12.4572 80.2412 11.5826 79.7736 10.7903L76.3287 12.8233C76.4066 12.9552 76.4682 13.1337 76.4718 13.412L80.4714 13.3607ZM79.7736 10.7903C79.3137 10.0111 78.67 9.39576 77.876 8.96723L75.9763 12.4873C76.1368 12.5739 76.2431 12.6783 76.3287 12.8233L79.7736 10.7903ZM77.9093 8.98562C77.1003 8.52891 76.2111 8.32955 75.3011 8.32955V12.3295C75.6184 12.3295 75.8126 12.3953 75.9429 12.4689L77.9093 8.98562ZM75.3011 8.32955C74.3673 8.32955 73.4637 8.54372 72.6413 9.01187L74.6201 12.4881C74.7825 12.3957 74.9925 12.3295 75.3011 12.3295V8.32955ZM72.6617 9.00042C71.8661 9.44103 71.2183 10.0618 70.7476 10.842L74.1728 12.908C74.278 12.7337 74.4104 12.6044 74.5997 12.4996L72.6617 9.00042ZM70.755 10.8299C70.2676 11.6252 70.0296 12.508 70.0063 13.4267L74.005 13.5279C74.0121 13.2496 74.0771 13.0642 74.1654 12.9201L70.755 10.8299ZM70.0057 13.4773V16.7614H74.0057V13.4773H70.0057ZM70.0057 16.7614C70.0057 17.7393 70.1996 18.6915 70.6525 19.5606L74.1998 17.7121C74.0921 17.5054 74.0057 17.2077 74.0057 16.7614H70.0057ZM70.6579 19.571C71.1132 20.4323 71.7774 21.1242 72.6243 21.6099L74.6143 18.1401C74.4309 18.0349 74.2997 17.9011 74.1943 17.7017L70.6579 19.571ZM72.6243 21.6099C73.4974 22.1107 74.4685 22.3182 75.4602 22.3182V18.3182C75.0277 18.3182 74.7715 18.2302 74.6143 18.1401L72.6243 21.6099ZM75.4602 22.3182C76.1369 22.3182 76.8053 22.2244 77.4443 22.0074L76.158 18.2199C75.994 18.2756 75.7684 18.3182 75.4602 18.3182V22.3182ZM77.4443 22.0074C78.0877 21.7889 78.6805 21.4519 79.1902 20.9825L76.4803 18.0403C76.4142 18.1011 76.3176 18.1656 76.158 18.2199L77.4443 22.0074ZM79.1902 20.9825C79.7219 20.4927 80.1094 19.8973 80.3571 19.2323L76.6088 17.8359C76.5687 17.9436 76.5243 17.9997 76.4803 18.0403L79.1902 20.9825ZM78.4251 20.5333L83.5273 20.681L83.6431 16.6827L78.5408 16.5349L78.4251 20.5333ZM81.6188 18.3172C81.4672 19.1346 81.1459 19.8065 80.6623 20.3767L83.7127 22.9642C84.6685 21.8374 85.279 20.517 85.5517 19.0465L81.6188 18.3172ZM80.6612 20.378C80.1851 20.9403 79.5296 21.4181 78.6296 21.7828L80.1318 25.49C81.55 24.9153 82.7657 24.0825 83.7138 22.963L80.6612 20.378ZM78.64 21.7786C77.7622 22.1285 76.6813 22.3295 75.358 22.3295V26.3295C77.0801 26.3295 78.681 26.0684 80.1214 25.4942L78.64 21.7786Z" fill="black" mask="url(#path-1-outside-1_312_36)"/>
</svg>
